<?xml version="1.0"?>
<svg xmlns="http://www.w3.org/2000/svg" viewBox="0 0 50 50" fill-rule="evenodd" clip-rule="evenodd" stroke-linejoin="round" stroke-miterlimit="1.414">
    <path d="M14.617,28.417c-0.193,-0.478 -0.387,-0.956 -0.58,-1.433c-0.483,-1.339 -0.29,-2.581 0.677,-3.632c0.773,-0.861 1.74,-1.53 2.996,-1.625c0.774,-0.096 1.45,0.095 2.03,0.478c0.097,0.095 0.193,0.095 0.387,0.191c-0.097,-0.287 -0.194,-0.478 -0.29,-0.765c-0.967,-2.963 -2.03,-5.926 -2.997,-8.888c-0.386,-1.243 -0.676,-2.485 -0.966,-3.728c0,-1.147 0.096,-2.198 0.483,-3.154c0.773,-1.625 2.223,-2.007 3.383,-1.816c0.773,0.191 1.257,0.669 1.643,1.243c0.87,1.146 1.547,2.389 2.224,3.727c1.353,2.676 2.319,5.544 3.286,8.411c0.193,0.573 0.387,1.051 0.58,1.625c0,0.095 0.097,0.095 0.193,0.191c0.194,-0.574 0.484,-1.147 0.677,-1.816c0.773,-2.39 1.643,-4.779 2.803,-6.977c0.677,-1.434 1.45,-2.963 2.513,-4.206c0.097,-0.286 0.387,-0.478 0.58,-0.669c1.353,-1.242 3.19,-0.86 4.06,0.287c0.773,0.956 0.967,2.007 0.87,3.154c-0.193,1.625 -0.677,3.25 -1.16,4.875c-0.87,2.58 -1.837,5.161 -2.707,7.741c0,0.096 -0.096,0.191 -0.096,0.287c0.193,0.096 0.386,0.096 0.58,0.191c1.16,0.382 2.32,0.86 2.996,1.912c0.484,0.764 0.774,1.624 0.967,2.485c0.29,1.433 0.29,2.867 0.193,4.301c-0.096,1.911 -0.483,3.823 -1.16,5.543c-1.45,3.536 -3.769,6.308 -7.249,8.029c-1.74,0.86 -3.673,1.433 -5.607,1.529c-2.706,0.287 -5.316,-0.096 -7.829,-1.147c-3.287,-1.338 -6.573,-4.683 -7.54,-7.742c-0.483,-1.529 -0.676,-2.963 -0.483,-4.588c0.29,-2.007 1.547,-3.345 3.48,-3.918c0.387,0 0.773,0 1.063,-0.096Zm-0.483,5.353c0.096,0.191 0.29,0.286 0.386,0.477c0.484,0.574 0.87,1.147 1.354,1.721c0.58,0.669 1.16,1.338 1.933,1.625c0.677,0.286 1.257,0.286 1.933,0c0.58,-0.287 0.677,-0.669 0.58,-1.243c-0.097,-0.191 -0.193,-0.382 -0.29,-0.573c-0.677,-1.338 -1.546,-2.581 -2.61,-3.632c-0.58,-0.574 -1.063,-1.147 -1.74,-1.625c-0.58,-0.478 -1.16,-0.478 -1.739,-0.096c-0.87,0.574 -1.45,1.338 -1.74,2.39c-0.29,1.051 -0.097,2.102 0.29,3.058c0.966,2.581 2.609,4.684 4.929,6.117c3.48,2.198 7.25,2.676 11.116,1.434c4.447,-1.434 7.25,-4.588 8.796,-8.889c0.677,-1.816 0.774,-3.823 0.774,-5.734c0,-0.956 -0.097,-1.912 -0.387,-2.772c-0.29,-0.765 -0.773,-1.434 -1.547,-1.816c-0.483,-0.191 -0.87,-0.382 -1.353,-0.574c-2.996,-1.051 -6.089,-1.338 -9.183,-1.624c-0.676,0 -1.256,0 -1.933,0.191c-0.483,0.191 -0.87,0.478 -0.87,1.051c-0.096,1.147 0.29,2.103 1.257,2.772c0.676,0.478 1.546,0.764 2.416,0.956c1.934,0.382 3.963,0.382 5.993,0.382c0.484,0 0.87,0 1.354,0.095c0.483,0.096 0.58,0.478 0.676,0.956c0.097,0.383 -0.193,0.574 -0.483,0.669c-0.58,0.287 -1.063,0.478 -1.643,0.669c-2.32,0.861 -4.06,2.39 -5.317,4.492c-0.87,1.53 -1.16,3.154 -0.483,4.875c0.193,0.382 0.29,0.764 0.387,1.242c0.096,0.383 0.193,0.861 0.096,1.338c-0.966,-0.191 -1.546,-0.669 -2.03,-1.433c-0.386,-0.765 -0.579,-1.625 -0.676,-2.485c-0.097,-0.478 -0.097,-0.956 -0.097,-1.434c-0.58,0.382 -1.256,0.287 -1.933,0.191c0,0.191 0.097,0.287 0.097,0.383c0.29,1.147 -0.194,2.198 -1.16,2.867c-0.774,0.573 -1.74,0.573 -2.61,0.382c-1.547,-0.382 -2.707,-1.338 -3.673,-2.58c-0.484,-0.669 -0.967,-1.434 -1.063,-2.199c-0.29,-0.764 -0.29,-1.147 0.193,-1.624Zm11.599,-13.286l0,-0.095c-0.87,-2.581 -1.74,-5.257 -2.706,-7.838c-0.58,-1.624 -1.257,-3.345 -1.934,-4.97c-0.193,-0.477 -0.483,-0.955 -0.966,-1.338c-0.87,-0.573 -1.837,-0.286 -2.127,0.669c-0.096,0.383 -0.193,0.765 -0.096,1.147c0,1.147 0.29,2.199 0.676,3.25c1.16,3.154 2.223,6.308 3.383,9.462c1.16,-0.765 2.514,-0.287 3.77,-0.287Zm7.346,1.052c0,-0.096 0.097,-0.096 0.097,-0.191c1.353,-3.632 2.61,-7.264 3.77,-10.992c0.193,-0.764 0.386,-1.433 0.29,-2.294c-0.097,-0.764 -0.58,-1.147 -1.16,-1.242c-0.484,0 -0.967,0.191 -1.257,0.573c-0.58,0.669 -0.966,1.434 -1.256,2.199c-1.547,3.631 -2.707,7.359 -3.963,11.086c0,0 0,0.096 0,0.192c1.063,0.191 2.223,0.382 3.479,0.669Zm-8.796,11.469c0,-0.191 0,-0.382 -0.096,-0.574c-0.29,-0.669 -0.484,-1.338 -0.774,-2.102c-0.773,-1.816 -1.74,-3.632 -2.996,-5.257c-0.387,-0.478 -0.87,-0.956 -1.45,-1.242c-1.257,-0.574 -3.093,0.573 -2.997,2.007l0,0.095c0.194,0.478 0.29,1.052 0.484,1.529c1.063,2.103 2.513,3.919 4.156,5.64c0.483,0.477 1.063,0.955 1.74,1.242c0.967,0.382 1.933,-0.287 1.933,-1.338Zm1.837,-0.956c0.773,-1.147 1.836,-1.911 2.996,-2.772c-1.546,-0.095 -2.996,-0.286 -4.35,-0.764c0.387,1.147 0.87,2.294 1.354,3.536Z" fill-rule="nonzero"/>
</svg>
